HIERARCHY
ROOT Hips
{
	OFFSET 52.337700 -27.696514 86.752289
	CHANNELS 6 Xposition Yposition Zposition Xrotation Yrotation Zrotation
	JOINT spine
	{
		OFFSET 0.000000 -0.393702 6.846367
		CHANNELS 3 Xrotation Yrotation Zrotation
		JOINT spine1
		{
			OFFSET 0.000000 -0.000002 9.496208
			CHANNELS 3 Xrotation Yrotation Zrotation
			JOINT spine2
			{
				OFFSET 0.000000 -0.000002 9.099091
				CHANNELS 3 Xrotation Yrotation Zrotation
				JOINT Neck
				{
					OFFSET 0.000000 -1.113783 23.361206
					CHANNELS 3 Xrotation Yrotation Zrotation
					JOINT Head
					{
						OFFSET 0.000000 0.000000 7.058014
						CHANNELS 3 Xrotation Yrotation Zrotation
						End Site
						{
							OFFSET 0.000000 5.634186 17.084396
						}
					}
				}
				JOINT RightShoulder
				{
					OFFSET -3.831360 0.533491 9.826309
					CHANNELS 3 Xrotation Yrotation Zrotation
					JOINT RightArm
					{
						OFFSET 0.000000 -0.000004 12.888107
						CHANNELS 3 Xrotation Yrotation Zrotation
						JOINT RightArmRoll
						{
							OFFSET 0.000000 0.000000 6.506165
							CHANNELS 3 Xrotation Yrotation Zrotation
							JOINT RightForeArm
							{
								OFFSET 0.000000 -0.000004 18.950104
								CHANNELS 3 Xrotation Yrotation Zrotation
								JOINT RightForeArmRoll
								{
									OFFSET 0.000000 0.000000 7.300919
									CHANNELS 3 Xrotation Yrotation Zrotation
									JOINT RightHand
									{
										OFFSET 0.000000 -0.000004 14.651398
										CHANNELS 3 Xrotation Yrotation Zrotation
										End Site
										{
											OFFSET 0.000000 0.000000 0.100006
										}
									}
								}
							}
						}
					}
				}
				JOINT LeftShoulder
				{
					OFFSET 3.831360 0.533491 9.826309
					CHANNELS 3 Xrotation Yrotation Zrotation
					JOINT LeftArm
					{
						OFFSET 0.000000 -0.000004 12.888107
						CHANNELS 3 Xrotation Yrotation Zrotation
						JOINT LeftArmRoll
						{
							OFFSET 0.000000 0.000000 6.506165
							CHANNELS 3 Xrotation Yrotation Zrotation
							JOINT LeftForeArm
							{
								OFFSET 0.000000 -0.000004 18.950104
								CHANNELS 3 Xrotation Yrotation Zrotation
								JOINT LeftForeArmRoll
								{
									OFFSET 0.000000 0.000000 7.300919
									CHANNELS 3 Xrotation Yrotation Zrotation
									JOINT LeftHand
									{
										OFFSET 0.000000 -0.000004 14.651398
										CHANNELS 3 Xrotation Yrotation Zrotation
										End Site
										{
											OFFSET 0.000000 0.000000 0.100006
										}
									}
								}
							}
						}
					}
				}
			}
		}
	}
	JOINT RightUpLeg
	{
		OFFSET -6.068371 0.933477 -1.112778
		CHANNELS 3 Xrotation Yrotation Zrotation
		JOINT RightUpLegRoll
		{
			OFFSET 0.000000 -0.000004 17.179604
			CHANNELS 3 Xrotation Yrotation Zrotation
			JOINT RightLeg
			{
				OFFSET 0.000000 0.000004 -21.274300
				CHANNELS 3 Xrotation Yrotation Zrotation
				JOINT RightLegRoll
				{
					OFFSET 0.000000 -0.000004 21.343903
					CHANNELS 3 Xrotation Yrotation Zrotation
					JOINT RightFoot
					{
						OFFSET 0.000000 -0.000002 17.765198
						CHANNELS 3 Xrotation Yrotation Zrotation
						JOINT RightToeBase
						{
							OFFSET 0.000000 -0.000004 14.850815
							CHANNELS 3 Xrotation Yrotation Zrotation
							End Site
							{
								OFFSET 0.006294 0.829004 7.192123
							}
						}
					}
				}
			}
		}
	}
	JOINT LeftUpLeg
	{
		OFFSET 6.068371 0.933477 -1.112778
		CHANNELS 3 Xrotation Yrotation Zrotation
		JOINT LeftUpLegRoll
		{
			OFFSET 0.000000 -0.000004 17.179703
			CHANNELS 3 Xrotation Yrotation Zrotation
			JOINT LeftLeg
			{
				OFFSET 0.000000 -0.000004 21.274200
				CHANNELS 3 Xrotation Yrotation Zrotation
				JOINT LeftLegRoll
				{
					OFFSET 0.000000 -0.000002 21.541214
					CHANNELS 3 Xrotation Yrotation Zrotation
					JOINT LeftFoot
					{
						OFFSET 0.000000 -0.000004 17.567902
						CHANNELS 3 Xrotation Yrotation Zrotation
						JOINT LeftToeBase
						{
							OFFSET 0.000000 -0.000002 14.850800
							CHANNELS 3 Xrotation Yrotation Zrotation
							End Site
							{
								OFFSET -0.028210 0.829002 7.192123
							}
						}
					}
				}
			}
		}
	}
}
MOTION
Frames: 6
Frame Time: 0.041667
54.141998 -9.079754 70.295311 37.749510 -6.286945 -4.514269 0.232249 0.240919 0.597308 4.464901 0.490030 1.192666 6.109881 0.504282 1.186711 -14.548212 19.763045 3.953871 12.018314 -15.371733 0.600622 -6.715294 -41.890677 -6.361432 127.942830 -29.562408 98.297917 0.000009 -0.000003 0.000003 17.760903 -32.851526 9.227292 -0.000010 0.000008 -2.999999 -5.000025 -7.999273 -0.000108 -19.806835 64.201968 23.359008 -69.864113 148.574373 88.945025 -0.000000 -0.000000 0.000003 6.618255 41.920399 -6.371471 0.000004 0.000004 2.994028 -5.000388 8.000094 -0.000139 -94.234897 188.791852 -2.740599 179.999991 -0.000004 -0.380997 114.871337 -6.355506 -4.482135 0.000002 0.000001 0.880062 73.550148 7.157453 1.015603 25.456953 -7.355616 0.000001 -90.683957 169.460422 -1.872919 -0.000016 -0.000004 -0.389952 -67.692352 11.277407 7.906130 -0.000014 -0.000004 0.624222 78.448664 -8.173592 3.046073 25.456950 7.355613 -0.000010 
54.143002 -9.135979 70.398010 37.685955 -6.268483 -4.506619 0.223885 0.233339 0.597135 4.448249 0.474761 1.192088 6.093229 0.489008 1.186320 -14.572735 19.777795 3.949774 11.978717 -15.385752 0.584557 -6.692983 -41.971926 -6.340381 127.841648 -29.467963 98.614770 0.000008 -0.000003 0.000000 17.115465 -32.958719 9.007367 -0.000010 0.000007 -3.000006 -5.000025 -7.999273 -0.000108 -19.875449 64.315527 23.436908 -69.902362 148.671717 88.558040 -0.000001 0.000001 -0.000001 6.001471 41.863158 -6.081437 0.000003 0.000004 2.995379 -5.000387 8.000102 -0.000143 -93.992002 188.813381 -2.737260 179.999991 -0.000004 -0.380000 115.057405 -6.387103 -4.484257 0.000001 0.000000 0.872763 73.539800 7.158615 1.013935 25.456947 -7.355612 0.000002 -90.442763 169.478836 -1.859132 -0.000021 -0.000004 -0.387738 -67.488724 11.323876 7.882808 -0.000013 -0.000004 0.632160 78.423590 -8.177668 3.053851 25.456955 7.355613 -0.000010 
54.134403 -9.197752 70.494415 37.621874 -6.250974 -4.498952 0.215632 0.226320 0.596976 4.431819 0.460621 1.191330 6.076804 0.474859 1.185728 -14.602822 19.786906 3.947107 11.944197 -15.395776 0.570633 -6.671848 -42.055298 -6.321113 127.742460 -29.375452 98.929525 0.000009 -0.000003 0.000000 16.484113 -33.058385 8.789370 -0.000009 0.000003 -3.000002 -5.000026 -7.999273 -0.000104 -19.943871 64.424168 23.514524 -69.936213 148.766656 88.169587 -0.000000 0.000001 0.000000 5.427001 41.798077 -5.794560 0.000004 0.000007 2.997351 -5.000387 8.000094 -0.000142 -93.748977 188.834814 -2.734017 179.999991 -0.000004 -0.379999 115.244225 -6.417724 -4.484443 0.000002 0.000001 0.865615 73.528578 7.159737 1.012212 25.456957 -7.355614 0.000002 -90.200776 169.496704 -1.846550 -0.000021 -0.000004 -0.385553 -67.283852 11.370655 7.859706 -0.000015 -0.000003 0.639967 78.397376 -8.182009 3.062012 25.456950 7.355613 -0.000010 
54.125702 -9.258839 70.588013 37.557404 -6.234563 -4.491261 0.207520 0.219951 0.596828 4.415673 0.447788 1.190352 6.060652 0.462015 1.184906 -14.639438 19.789425 3.946097 11.915828 -15.400941 0.559237 -6.652146 -42.141290 -6.303990 127.645417 -29.284962 99.241863 0.000009 -0.000003 0.000002 15.869287 -33.150528 8.574061 -0.000010 0.000007 -3.000001 -5.000025 -7.999273 -0.000103 -20.011814 64.527085 23.591550 -69.963574 148.859793 87.776544 0.000000 0.000001 0.000003 4.899249 41.725311 -5.510679 0.000003 0.000007 2.999999 -5.000388 8.000100 -0.000140 -93.506034 188.856233 -2.730788 179.999991 -0.000004 -0.379002 115.431782 -6.447813 -4.483581 0.000001 0.000001 0.858639 73.516447 7.160799 1.010443 25.456953 -7.355613 0.000001 -89.958058 169.514176 -1.835345 -0.000021 -0.000005 -0.383404 -67.077717 11.417920 7.837085 -0.000013 -0.000003 0.647655 78.369973 -8.186584 3.070662 25.456952 7.355613 -0.000010 
54.119999 -9.322292 70.690605 37.492636 -6.219340 -4.483507 0.199479 0.214221 0.596600 4.399658 0.436235 1.188866 6.044625 0.450444 1.183562 -14.682332 19.786042 3.946815 11.892491 -15.401708 0.550180 -6.633243 -42.229130 -6.288150 127.550491 -29.195623 99.551325 0.000009 -0.000003 -0.000002 15.267402 -33.233949 8.362003 -0.000008 0.000005 -2.999947 -5.000023 -7.999273 -0.000105 -20.081521 64.625754 23.670553 -69.987753 148.950921 87.383862 -0.000000 0.000001 0.000005 4.414172 41.642571 -5.228550 0.000004 0.000008 3.003310 -5.000388 8.000090 -0.000143 -93.263433 188.877830 -2.727801 179.999991 -0.000004 -0.378004 115.620090 -6.477361 -4.483699 0.000001 0.000001 0.851823 73.503252 7.161902 1.008544 25.456955 -7.355612 0.000001 -89.714904 169.531456 -1.825319 -0.000022 -0.000004 -0.381264 -66.870250 11.465768 7.814909 -0.000014 -0.000003 0.655281 78.341389 -8.191378 3.079902 25.456948 7.355613 -0.000010 
54.116604 -9.374945 70.790909 37.427862 -6.205161 -4.475631 0.191417 0.209020 0.596230 4.383589 0.425732 1.186685 6.028573 0.439918 1.181512 -14.729839 19.778464 3.948940 11.872388 -15.399061 0.542901 -6.614371 -42.317960 -6.272479 127.458952 -29.104751 99.861088 0.000009 -0.000003 -0.000000 14.673205 -33.308104 8.153137 -0.000008 0.000006 -2.999841 -5.000027 -7.999272 -0.000106 -20.155069 64.722449 23.753890 -70.010327 149.040957 86.992452 0.000000 0.000002 0.000000 3.963715 41.547689 -4.947454 0.000003 0.000005 3.007199 -5.000387 8.000096 -0.000142 -93.021173 188.899619 -2.724565 179.999991 -0.000004 -0.376993 115.809040 -6.506332 -4.482787 0.000002 0.000001 0.845146 73.489161 7.162971 1.006499 25.456953 -7.355615 0.000002 -89.471455 169.548613 -1.816139 -0.000021 -0.000004 -0.379109 -66.661444 11.514212 7.792771 -0.000013 -0.000003 0.662873 78.311513 -8.196422 3.089423 25.456950 7.355614 -0.000010 
